<?xml version="1.0" encoding="utf-8"?>
<!-- Generator: Adobe Illustrator 19.2.1, SVG Export Plug-In . SVG Version: 6.00 Build 0)  -->
<svg version="1.1" id="Capa_1" xmlns="http://www.w3.org/2000/svg" xmlns:xlink="http://www.w3.org/1999/xlink" x="0px" y="0px"
	 viewBox="0 0 125 66.7" style="enable-background:new 0 0 125 66.7;" xml:space="preserve">
<style type="text/css">
	.st0{fill:#61A5B9;}
	.st1{fill:#4475A0;}
</style>
<g id="XMLID_1648_">
	<g id="XMLID_4454_">
		<g>
			<g id="XMLID_48_">
				<path id="XMLID_49_" class="st0" d="M48.1,0C48.1,0,48,0,48.1,0C48,0,48,0,48.1,0c-2.5,0-4.5,2-4.5,4.5v36.3
					c0,2.5,2,4.5,4.5,4.5c2.5,0,4.5-2,4.5-4.5V4.7c0,0,0-0.1,0-0.1C52.6,2.1,50.6,0,48.1,0z"/>
			</g>
			<g id="XMLID_46_">
				<path id="XMLID_47_" class="st0" d="M62.7,0C62.6,0,62.6,0,62.7,0C62.6,0,62.6,0,62.7,0c-2.5,0-4.5,2-4.5,4.5V29
					c0,2.5,2,4.5,4.5,4.5c2.5,0,4.5-2,4.5-4.5V4.8c0-0.1,0-0.1,0-0.2C67.2,2.1,65.2,0,62.7,0z"/>
			</g>
			<g id="XMLID_44_">
				<path id="XMLID_45_" class="st0" d="M77.2,0L77.2,0L77.2,0c-1.6,0-2.9,0.8-3.8,2c-0.5,0.7-0.8,1.6-0.8,2.5v36.3
					c0,2.5,2,4.5,4.5,4.5s4.5-2,4.5-4.5V4.6C81.8,2.1,79.7,0,77.2,0z"/>
			</g>
		</g>
	</g>
	<g id="XMLID_1781_">
		<g>
			<path id="XMLID_391_" class="st0" d="M7.6,60.1c0,0.7-0.1,1.4-0.3,1.9c-0.2,0.6-0.6,1-1,1.4c-0.4,0.4-0.9,0.6-1.5,0.8
				c-0.6,0.2-1.2,0.3-1.9,0.3c-0.3,0-0.7,0-1.1,0c-0.4,0-0.8-0.1-1.1-0.2v-8.4c0.3-0.1,0.7-0.1,1.1-0.2s0.8,0,1.1,0
				c0.7,0,1.4,0.1,1.9,0.3c0.6,0.2,1.1,0.4,1.5,0.8c0.4,0.4,0.8,0.8,1,1.4C7.5,58.7,7.6,59.3,7.6,60.1z M2.9,63.4
				c1.1,0,2-0.3,2.6-0.9C6,62,6.3,61.1,6.3,60.1c0-1.1-0.3-1.9-0.8-2.5c-0.6-0.6-1.4-0.9-2.6-0.9c-0.3,0-0.6,0-0.8,0
				c-0.2,0-0.3,0-0.4,0v6.6c0.1,0,0.2,0,0.4,0C2.3,63.4,2.6,63.4,2.9,63.4z"/>
			<path id="XMLID_388_" class="st0" d="M10.9,57.8c0.5,0,0.9,0.1,1.2,0.2c0.3,0.1,0.6,0.3,0.8,0.5c0.2,0.2,0.3,0.5,0.4,0.8
				c0.1,0.3,0.1,0.6,0.1,1v4c-0.1,0-0.2,0-0.4,0.1c-0.2,0-0.4,0.1-0.6,0.1c-0.2,0-0.5,0-0.7,0.1s-0.5,0-0.8,0c-0.4,0-0.7,0-1-0.1
				c-0.3-0.1-0.6-0.2-0.8-0.4c-0.2-0.2-0.4-0.4-0.5-0.6c-0.1-0.3-0.2-0.6-0.2-1c0-0.4,0.1-0.7,0.2-0.9c0.1-0.3,0.3-0.5,0.6-0.6
				c0.2-0.2,0.5-0.3,0.9-0.3c0.3-0.1,0.7-0.1,1-0.1c0.1,0,0.2,0,0.4,0c0.1,0,0.2,0,0.4,0c0.1,0,0.2,0,0.3,0.1s0.1,0,0.2,0v-0.3
				c0-0.2,0-0.4-0.1-0.6c0-0.2-0.1-0.4-0.2-0.5c-0.1-0.1-0.3-0.3-0.4-0.3c-0.2-0.1-0.4-0.1-0.7-0.1c-0.4,0-0.7,0-1,0.1
				C9.5,58.9,9.3,59,9.2,59l-0.1-1c0.1-0.1,0.4-0.1,0.7-0.2C10.1,57.8,10.5,57.8,10.9,57.8z M11,63.6c0.3,0,0.5,0,0.7,0
				c0.2,0,0.4,0,0.5-0.1v-1.9c-0.1,0-0.2-0.1-0.4-0.1c-0.2,0-0.4,0-0.7,0c-0.2,0-0.4,0-0.6,0c-0.2,0-0.4,0.1-0.5,0.2
				c-0.2,0.1-0.3,0.2-0.4,0.3s-0.2,0.3-0.2,0.5c0,0.4,0.1,0.7,0.4,0.9C10.2,63.5,10.6,63.6,11,63.6z"/>
			<path id="XMLID_386_" class="st0" d="M16.1,57.9h2.4v1h-2.4v3c0,0.3,0,0.6,0.1,0.8c0,0.2,0.1,0.4,0.2,0.5s0.2,0.2,0.4,0.3
				c0.1,0,0.3,0.1,0.5,0.1c0.3,0,0.6,0,0.8-0.1c0.2-0.1,0.4-0.1,0.4-0.2l0.2,1c-0.1,0.1-0.3,0.1-0.6,0.2c-0.3,0.1-0.6,0.1-1,0.1
				c-0.4,0-0.8-0.1-1.1-0.2c-0.3-0.1-0.5-0.3-0.7-0.5c-0.2-0.2-0.3-0.5-0.4-0.8c-0.1-0.3-0.1-0.7-0.1-1.1v-5.8l1.2-0.2V57.9z"/>
			<path id="XMLID_383_" class="st0" d="M21.8,57.8c0.5,0,0.9,0.1,1.2,0.2c0.3,0.1,0.6,0.3,0.8,0.5c0.2,0.2,0.3,0.5,0.4,0.8
				c0.1,0.3,0.1,0.6,0.1,1v4c-0.1,0-0.2,0-0.4,0.1c-0.2,0-0.4,0.1-0.6,0.1c-0.2,0-0.5,0-0.7,0.1c-0.3,0-0.5,0-0.8,0
				c-0.4,0-0.7,0-1-0.1c-0.3-0.1-0.6-0.2-0.8-0.4c-0.2-0.2-0.4-0.4-0.5-0.6c-0.1-0.3-0.2-0.6-0.2-1c0-0.4,0.1-0.7,0.2-0.9
				c0.1-0.3,0.3-0.5,0.6-0.6c0.2-0.2,0.5-0.3,0.9-0.3c0.3-0.1,0.7-0.1,1-0.1c0.1,0,0.2,0,0.4,0c0.1,0,0.2,0,0.4,0
				c0.1,0,0.2,0,0.3,0.1c0.1,0,0.1,0,0.2,0v-0.3c0-0.2,0-0.4-0.1-0.6c0-0.2-0.1-0.4-0.2-0.5c-0.1-0.1-0.3-0.3-0.4-0.3
				c-0.2-0.1-0.4-0.1-0.7-0.1c-0.4,0-0.7,0-1,0.1C20.4,58.9,20.2,59,20,59l-0.1-1c0.1-0.1,0.4-0.1,0.7-0.2
				C21,57.8,21.4,57.8,21.8,57.8z M21.9,63.6c0.3,0,0.5,0,0.7,0c0.2,0,0.4,0,0.5-0.1v-1.9c-0.1,0-0.2-0.1-0.4-0.1
				c-0.2,0-0.4,0-0.7,0c-0.2,0-0.4,0-0.6,0c-0.2,0-0.4,0.1-0.5,0.2c-0.2,0.1-0.3,0.2-0.4,0.3c-0.1,0.1-0.2,0.3-0.2,0.5
				c0,0.4,0.1,0.7,0.4,0.9C21.1,63.5,21.4,63.6,21.9,63.6z"/>
			<path id="XMLID_381_" class="st0" d="M32.4,63.2c-0.1-0.2-0.2-0.5-0.3-0.8c-0.1-0.3-0.3-0.6-0.4-1c-0.2-0.4-0.3-0.7-0.5-1.1
				c-0.2-0.4-0.3-0.7-0.5-1.1c-0.2-0.3-0.3-0.6-0.4-0.9c-0.1-0.3-0.2-0.5-0.3-0.6c-0.1,1-0.2,2-0.2,3.2c-0.1,1.1-0.1,2.3-0.1,3.4
				h-1.2c0-0.7,0.1-1.5,0.1-2.3c0-0.8,0.1-1.5,0.1-2.2c0.1-0.7,0.1-1.4,0.2-2.1c0.1-0.7,0.1-1.4,0.2-2H30c0.2,0.4,0.5,0.8,0.7,1.3
				c0.3,0.5,0.5,1,0.8,1.6c0.3,0.5,0.5,1.1,0.7,1.6c0.2,0.5,0.5,1,0.7,1.5c0.2-0.4,0.4-0.9,0.7-1.5c0.2-0.5,0.5-1.1,0.7-1.6
				c0.3-0.5,0.5-1.1,0.8-1.6c0.3-0.5,0.5-0.9,0.7-1.3h1.1c0.3,2.8,0.5,5.6,0.6,8.6h-1.2c0-1.2-0.1-2.3-0.1-3.4
				c-0.1-1.1-0.1-2.2-0.2-3.2c-0.1,0.1-0.2,0.3-0.3,0.6c-0.1,0.3-0.3,0.6-0.4,0.9c-0.2,0.3-0.3,0.7-0.5,1.1
				c-0.2,0.4-0.3,0.7-0.5,1.1c-0.2,0.4-0.3,0.7-0.4,1c-0.1,0.3-0.2,0.6-0.3,0.8H32.4z"/>
			<path id="XMLID_378_" class="st0" d="M39.5,56.8c-0.2,0-0.4-0.1-0.5-0.2c-0.1-0.1-0.2-0.3-0.2-0.6s0.1-0.4,0.2-0.6
				c0.1-0.1,0.3-0.2,0.5-0.2c0.2,0,0.4,0.1,0.5,0.2c0.1,0.1,0.2,0.3,0.2,0.6s-0.1,0.4-0.2,0.6C39.9,56.7,39.7,56.8,39.5,56.8z
				 M40.1,64.4H39v-6.5h1.2V64.4z"/>
			<path id="XMLID_376_" class="st0" d="M41.8,58.1c0.3-0.1,0.6-0.1,1.1-0.2c0.4-0.1,0.9-0.1,1.5-0.1c0.5,0,0.9,0.1,1.3,0.2
				c0.3,0.1,0.6,0.3,0.8,0.6c0.2,0.3,0.3,0.6,0.4,0.9c0.1,0.4,0.1,0.8,0.1,1.2v3.6h-1.2V61c0-0.4,0-0.7-0.1-1
				c-0.1-0.3-0.1-0.5-0.3-0.7c-0.1-0.2-0.3-0.3-0.5-0.4c-0.2-0.1-0.5-0.1-0.8-0.1c-0.1,0-0.3,0-0.4,0c-0.1,0-0.3,0-0.4,0
				c-0.1,0-0.2,0-0.3,0c-0.1,0-0.2,0-0.2,0v5.5h-1.2V58.1z"/>
			<path id="XMLID_373_" class="st0" d="M49.2,56.8c-0.2,0-0.4-0.1-0.5-0.2c-0.1-0.1-0.2-0.3-0.2-0.6s0.1-0.4,0.2-0.6
				c0.1-0.1,0.3-0.2,0.5-0.2c0.2,0,0.4,0.1,0.5,0.2c0.1,0.1,0.2,0.3,0.2,0.6s-0.1,0.4-0.2,0.6C49.6,56.7,49.4,56.8,49.2,56.8z
				 M49.8,64.4h-1.2v-6.5h1.2V64.4z"/>
			<path id="XMLID_371_" class="st0" d="M51.4,58.1c0.3-0.1,0.6-0.1,1.1-0.2c0.4-0.1,0.9-0.1,1.5-0.1c0.5,0,0.9,0.1,1.3,0.2
				c0.3,0.1,0.6,0.3,0.8,0.6c0.2,0.3,0.3,0.6,0.4,0.9c0.1,0.4,0.1,0.8,0.1,1.2v3.6h-1.2V61c0-0.4,0-0.7-0.1-1
				c-0.1-0.3-0.1-0.5-0.3-0.7c-0.1-0.2-0.3-0.3-0.5-0.4c-0.2-0.1-0.5-0.1-0.8-0.1c-0.1,0-0.3,0-0.4,0c-0.1,0-0.3,0-0.4,0
				c-0.1,0-0.2,0-0.3,0c-0.1,0-0.2,0-0.2,0v5.5h-1.2V58.1z"/>
			<path id="XMLID_368_" class="st0" d="M62.3,63.8c-0.1,0.1-0.3,0.2-0.6,0.3c-0.3,0.1-0.6,0.2-1,0.2c-0.4,0-0.8-0.1-1.1-0.2
				c-0.3-0.1-0.6-0.3-0.9-0.6c-0.3-0.3-0.5-0.6-0.6-1C58,62,57.9,61.6,57.9,61c0-0.5,0.1-0.9,0.2-1.3c0.1-0.4,0.3-0.7,0.6-1
				c0.3-0.3,0.6-0.5,1-0.7c0.4-0.2,0.8-0.2,1.3-0.2c0.5,0,1,0,1.4,0.1c0.4,0.1,0.7,0.2,1,0.2v5.8c0,1-0.3,1.7-0.8,2.2
				c-0.5,0.4-1.3,0.7-2.3,0.7c-0.4,0-0.8,0-1.1-0.1s-0.7-0.1-0.9-0.2l0.2-1c0.2,0.1,0.5,0.2,0.9,0.2s0.7,0.1,1,0.1
				c0.7,0,1.2-0.1,1.5-0.4c0.3-0.3,0.5-0.7,0.5-1.3V63.8z M62.3,59c-0.1,0-0.3-0.1-0.5-0.1c-0.2,0-0.5,0-0.8,0
				c-0.6,0-1.1,0.2-1.4,0.6c-0.3,0.4-0.5,0.9-0.5,1.6c0,0.4,0,0.7,0.1,1c0.1,0.3,0.2,0.5,0.4,0.7c0.2,0.2,0.3,0.3,0.6,0.4
				c0.2,0.1,0.4,0.1,0.7,0.1c0.3,0,0.6,0,0.8-0.1c0.3-0.1,0.5-0.2,0.6-0.3V59z"/>
			<path id="XMLID_366_" class="st0" d="M71.5,64.6c-0.6,0-1.2-0.1-1.7-0.3c-0.5-0.2-0.9-0.5-1.3-0.9c-0.4-0.4-0.6-0.9-0.8-1.4
				c-0.2-0.6-0.3-1.2-0.3-1.9c0-0.7,0.1-1.4,0.3-1.9s0.5-1,0.9-1.4c0.4-0.4,0.8-0.7,1.3-0.9c0.5-0.2,1-0.3,1.6-0.3
				c0.4,0,0.7,0,1,0.1c0.3,0,0.5,0.1,0.7,0.2c0.2,0.1,0.4,0.1,0.5,0.2c0.1,0.1,0.2,0.1,0.3,0.1l-0.3,1c-0.1,0-0.2-0.1-0.3-0.2
				c-0.1-0.1-0.3-0.1-0.5-0.2c-0.2-0.1-0.4-0.1-0.6-0.1c-0.2,0-0.4-0.1-0.6-0.1c-0.5,0-0.9,0.1-1.2,0.2s-0.7,0.4-0.9,0.7
				c-0.3,0.3-0.5,0.7-0.6,1.1c-0.1,0.4-0.2,0.9-0.2,1.4c0,0.5,0.1,1,0.2,1.4c0.1,0.4,0.3,0.8,0.5,1.1c0.2,0.3,0.5,0.5,0.9,0.7
				c0.4,0.2,0.8,0.2,1.3,0.2c0.6,0,1-0.1,1.4-0.2c0.4-0.1,0.6-0.2,0.8-0.3l0.3,1c-0.1,0-0.2,0.1-0.3,0.2c-0.1,0.1-0.3,0.1-0.6,0.2
				c-0.2,0.1-0.5,0.1-0.8,0.1C72.2,64.6,71.8,64.6,71.5,64.6z"/>
			<path id="XMLID_363_" class="st0" d="M80.6,61.2c0,0.5-0.1,1-0.2,1.4c-0.1,0.4-0.4,0.8-0.6,1.1c-0.3,0.3-0.6,0.5-1,0.7
				c-0.4,0.2-0.8,0.2-1.2,0.2c-0.4,0-0.8-0.1-1.2-0.2c-0.4-0.2-0.7-0.4-1-0.7c-0.3-0.3-0.5-0.7-0.6-1.1c-0.1-0.4-0.2-0.9-0.2-1.4
				c0-0.5,0.1-1,0.2-1.4c0.1-0.4,0.4-0.8,0.6-1.1c0.3-0.3,0.6-0.5,1-0.7c0.4-0.2,0.8-0.2,1.2-0.2c0.4,0,0.8,0.1,1.2,0.2
				c0.4,0.2,0.7,0.4,1,0.7c0.3,0.3,0.5,0.7,0.6,1.1C80.5,60.2,80.6,60.7,80.6,61.2z M79.4,61.2c0-0.7-0.2-1.3-0.5-1.7
				c-0.3-0.4-0.8-0.6-1.3-0.6c-0.6,0-1,0.2-1.3,0.6c-0.3,0.4-0.5,1-0.5,1.7c0,0.7,0.2,1.3,0.5,1.7c0.3,0.4,0.8,0.6,1.3,0.6
				c0.6,0,1-0.2,1.3-0.6C79.2,62.5,79.4,61.9,79.4,61.2z"/>
			<path id="XMLID_361_" class="st0" d="M81.9,58.1c0.3-0.1,0.6-0.1,1.1-0.2c0.4-0.1,0.9-0.1,1.5-0.1c0.5,0,0.9,0.1,1.3,0.2
				c0.3,0.1,0.6,0.3,0.8,0.6c0.2,0.3,0.3,0.6,0.4,0.9c0.1,0.4,0.1,0.8,0.1,1.2v3.6H86V61c0-0.4,0-0.7-0.1-1
				c-0.1-0.3-0.1-0.5-0.3-0.7c-0.1-0.2-0.3-0.3-0.5-0.4c-0.2-0.1-0.5-0.1-0.8-0.1c-0.1,0-0.3,0-0.4,0c-0.1,0-0.3,0-0.4,0
				c-0.1,0-0.2,0-0.3,0c-0.1,0-0.2,0-0.2,0v5.5h-1.2V58.1z"/>
			<path id="XMLID_359_" class="st0" d="M90.3,63.6c0.5,0,0.8-0.1,1-0.2s0.3-0.3,0.3-0.6c0-0.3-0.1-0.5-0.3-0.7
				c-0.2-0.2-0.6-0.4-1.1-0.6c-0.2-0.1-0.5-0.2-0.7-0.3c-0.2-0.1-0.4-0.2-0.6-0.4c-0.2-0.1-0.3-0.3-0.4-0.5s-0.1-0.4-0.1-0.7
				c0-0.6,0.2-1,0.6-1.4s1-0.5,1.7-0.5c0.2,0,0.4,0,0.5,0c0.2,0,0.4,0,0.5,0.1c0.2,0,0.3,0.1,0.4,0.1c0.1,0,0.2,0.1,0.3,0.1l-0.2,1
				c-0.1-0.1-0.3-0.1-0.6-0.2c-0.3-0.1-0.6-0.1-1-0.1c-0.3,0-0.6,0.1-0.8,0.2s-0.4,0.3-0.4,0.6c0,0.1,0,0.3,0.1,0.4
				c0.1,0.1,0.1,0.2,0.2,0.3c0.1,0.1,0.3,0.2,0.4,0.2c0.2,0.1,0.4,0.2,0.6,0.2c0.3,0.1,0.6,0.2,0.8,0.3c0.2,0.1,0.4,0.2,0.6,0.4
				c0.2,0.1,0.3,0.3,0.4,0.5c0.1,0.2,0.1,0.5,0.1,0.8c0,0.6-0.2,1-0.7,1.4c-0.4,0.3-1.1,0.5-1.9,0.5c-0.6,0-1,0-1.3-0.1
				c-0.3-0.1-0.5-0.2-0.7-0.2l0.2-1c0.1,0,0.3,0.1,0.6,0.2C89.4,63.5,89.8,63.6,90.3,63.6z"/>
			<path id="XMLID_357_" class="st0" d="M99.1,64.2c-0.3,0.1-0.6,0.1-1,0.2c-0.4,0.1-0.9,0.1-1.5,0.1c-0.5,0-0.9-0.1-1.3-0.2
				c-0.3-0.1-0.6-0.4-0.8-0.6c-0.2-0.3-0.4-0.6-0.4-0.9c-0.1-0.4-0.1-0.8-0.1-1.2v-3.6h1.2v3.4c0,0.8,0.1,1.4,0.4,1.7
				c0.2,0.3,0.7,0.5,1.3,0.5c0.1,0,0.3,0,0.4,0c0.1,0,0.3,0,0.4,0c0.1,0,0.2,0,0.3,0c0.1,0,0.2,0,0.2,0v-5.5h1.2V64.2z"/>
			<path id="XMLID_355_" class="st0" d="M102.8,64.5c-0.7,0-1.2-0.2-1.5-0.5c-0.3-0.3-0.4-0.7-0.4-1.4V55l1.2-0.2v7.8
				c0,0.2,0,0.3,0.1,0.5c0,0.1,0.1,0.2,0.2,0.3c0.1,0.1,0.2,0.1,0.3,0.2c0.1,0,0.3,0.1,0.5,0.1L102.8,64.5z"/>
			<path id="XMLID_353_" class="st0" d="M105,57.9h2.4v1H105v3c0,0.3,0,0.6,0.1,0.8c0,0.2,0.1,0.4,0.2,0.5s0.2,0.2,0.4,0.3
				c0.1,0,0.3,0.1,0.5,0.1c0.3,0,0.6,0,0.8-0.1c0.2-0.1,0.4-0.1,0.4-0.2l0.2,1c-0.1,0.1-0.3,0.1-0.6,0.2c-0.3,0.1-0.6,0.1-1,0.1
				c-0.4,0-0.8-0.1-1.1-0.2c-0.3-0.1-0.5-0.3-0.7-0.5c-0.2-0.2-0.3-0.5-0.4-0.8c-0.1-0.3-0.1-0.7-0.1-1.1v-5.8l1.2-0.2V57.9z"/>
			<path id="XMLID_350_" class="st0" d="M109.2,56.8c-0.2,0-0.4-0.1-0.5-0.2c-0.1-0.1-0.2-0.3-0.2-0.6s0.1-0.4,0.2-0.6
				c0.1-0.1,0.3-0.2,0.5-0.2s0.4,0.1,0.5,0.2c0.1,0.1,0.2,0.3,0.2,0.6s-0.1,0.4-0.2,0.6C109.5,56.7,109.4,56.8,109.2,56.8z
				 M109.7,64.4h-1.2v-6.5h1.2V64.4z"/>
			<path id="XMLID_348_" class="st0" d="M111.4,58.1c0.3-0.1,0.6-0.1,1.1-0.2c0.4-0.1,0.9-0.1,1.5-0.1c0.5,0,0.9,0.1,1.3,0.2
				c0.3,0.1,0.6,0.3,0.8,0.6c0.2,0.3,0.3,0.6,0.4,0.9c0.1,0.4,0.1,0.8,0.1,1.2v3.6h-1.2V61c0-0.4,0-0.7-0.1-1
				c-0.1-0.3-0.1-0.5-0.3-0.7c-0.1-0.2-0.3-0.3-0.5-0.4c-0.2-0.1-0.5-0.1-0.8-0.1c-0.1,0-0.3,0-0.4,0c-0.1,0-0.3,0-0.4,0
				c-0.1,0-0.2,0-0.3,0c-0.1,0-0.2,0-0.2,0v5.5h-1.2V58.1z"/>
			<path id="XMLID_345_" class="st0" d="M122.3,63.8c-0.1,0.1-0.3,0.2-0.6,0.3c-0.3,0.1-0.6,0.2-1,0.2c-0.4,0-0.8-0.1-1.1-0.2
				c-0.3-0.1-0.6-0.3-0.9-0.6c-0.3-0.3-0.5-0.6-0.6-1c-0.1-0.4-0.2-0.9-0.2-1.4c0-0.5,0.1-0.9,0.2-1.3c0.1-0.4,0.3-0.7,0.6-1
				c0.3-0.3,0.6-0.5,1-0.7c0.4-0.2,0.8-0.2,1.3-0.2c0.5,0,1,0,1.4,0.1c0.4,0.1,0.7,0.2,1,0.2v5.8c0,1-0.3,1.7-0.8,2.2
				c-0.5,0.4-1.3,0.7-2.3,0.7c-0.4,0-0.8,0-1.1-0.1c-0.4-0.1-0.7-0.1-0.9-0.2l0.2-1c0.2,0.1,0.5,0.2,0.9,0.2s0.7,0.1,1,0.1
				c0.7,0,1.2-0.1,1.5-0.4c0.3-0.3,0.5-0.7,0.5-1.3V63.8z M122.3,59c-0.1,0-0.3-0.1-0.5-0.1c-0.2,0-0.5,0-0.8,0
				c-0.6,0-1.1,0.2-1.4,0.6c-0.3,0.4-0.5,0.9-0.5,1.6c0,0.4,0,0.7,0.1,1c0.1,0.3,0.2,0.5,0.4,0.7c0.2,0.2,0.3,0.3,0.6,0.4
				c0.2,0.1,0.4,0.1,0.7,0.1c0.3,0,0.6,0,0.8-0.1c0.3-0.1,0.5-0.2,0.6-0.3V59z"/>
		</g>
	</g>
	<g id="XMLID_1778_">
		<path id="XMLID_1780_" class="st1" d="M120.4,36.5L120.4,36.5l-11.2,0c-3.7,0-7.2-1-9.9-3.7c-3.8-3.8-4.3-9.2-3.2-14.6
			c0.1-0.3,0.2-0.7,0.3-1c2.7-5.8,7.4-7.9,12.7-7.9h11.3c0,0,0,0,0,0c2.5,0,4.6-2,4.6-4.6c0-2.5-2-4.6-4.6-4.6c0,0,0,0,0,0l-11.2,0
			c-6.2,0-12.2,2.2-16.6,6.7c-8.1,8.1-8.1,24,0,32.1c4.5,4.5,10.4,6.7,16.6,6.7h11.2v0c2.5,0,4.5-2,4.5-4.5
			C125,38.5,122.9,36.5,120.4,36.5z"/>
	</g>
	<g id="XMLID_1775_">
		<path id="XMLID_1777_" class="st1" d="M48.1,0c-2.5,0-4.5,2-4.5,4.5c0,2.5,2,4.5,4.5,4.5c2.4,0,4.4-1.9,4.5-4.3V4.5
			C52.6,2,50.6,0,48.1,0z"/>
	</g>
	<g id="XMLID_1772_">
		<path id="XMLID_1774_" class="st1" d="M62.6,24.5c-2.5,0-4.5,2-4.5,4.5c0,2.5,2,4.5,4.5,4.5c2.4,0,4.4-1.9,4.5-4.3V29
			C67.2,26.5,65.1,24.5,62.6,24.5z"/>
	</g>
	<g id="XMLID_1768_">
		<path id="XMLID_1770_" class="st1" d="M77.2,0c-2.5,0-4.5,2-4.5,4.5c0,2.5,2,4.5,4.5,4.5c2.4,0,4.4-1.9,4.5-4.3V4.5
			C81.8,2,79.7,0,77.2,0z"/>
	</g>
	<g id="XMLID_1759_">
		<circle id="XMLID_1766_" class="st0" cx="120.4" cy="4.7" r="4.6"/>
	</g>
	<g id="XMLID_1651_">
		<g id="XMLID_1701_">
			<path id="XMLID_1758_" class="st1" d="M4.6,36.5L4.6,36.5l11.2,0c3.7,0,7.2-1,9.9-3.7c3.8-3.8,4.3-9.2,3.2-14.6
				c-0.1-0.3-0.2-0.7-0.3-1c-2.7-5.8-7.4-7.9-12.7-7.9H4.6c0,0,0,0,0,0C2,9.2,0,7.2,0,4.7c0-2.5,2-4.6,4.6-4.6c0,0,0,0,0,0h11.2
				c6.2,0,12.2,2.2,16.6,6.7c8.1,8.1,8.1,24,0,32.1c-4.5,4.5-10.4,6.7-16.6,6.7H4.6v0c-2.5,0-4.5-2-4.5-4.5
				C0,38.5,2.1,36.5,4.6,36.5z"/>
		</g>
		<g id="XMLID_1672_">
			<circle id="XMLID_1699_" class="st0" cx="4.6" cy="4.7" r="4.6"/>
		</g>
	</g>
</g>
</svg>
