<?xml version="1.0" encoding="utf-8"?>
<!-- Generator: Adobe Illustrator 19.2.1, SVG Export Plug-In . SVG Version: 6.00 Build 0)  -->
<svg version="1.1" id="Capa_1" xmlns="http://www.w3.org/2000/svg" xmlns:xlink="http://www.w3.org/1999/xlink" x="0px" y="0px"
	 viewBox="0 0 127.7 68.3" style="enable-background:new 0 0 127.7 68.3;" xml:space="preserve">
<style type="text/css">
	.st0{fill:#FFFFFF;}
</style>
<g id="XMLID_1299_">
	<g>
		<g id="XMLID_318_">
			<g>
				<path id="XMLID_414_" class="st0" d="M7.8,61.5c0,0.8-0.1,1.4-0.4,2c-0.2,0.6-0.6,1-1,1.4c-0.4,0.4-0.9,0.6-1.5,0.8
					c-0.6,0.2-1.3,0.3-2,0.3c-0.4,0-0.7,0-1.2,0c-0.4,0-0.8-0.1-1.2-0.2v-8.5c0.3-0.1,0.7-0.1,1.2-0.2s0.8,0,1.2,0
					c0.7,0,1.4,0.1,2,0.3c0.6,0.2,1.1,0.5,1.5,0.8c0.4,0.4,0.8,0.8,1,1.4C7.7,60.1,7.8,60.8,7.8,61.5z M3,64.9c1.2,0,2-0.3,2.6-0.9
					c0.6-0.6,0.9-1.4,0.9-2.5c0-1.1-0.3-1.9-0.9-2.5C5,58.4,4.2,58.1,3,58.1c-0.3,0-0.6,0-0.8,0c-0.2,0-0.3,0-0.4,0v6.7
					c0.1,0,0.2,0,0.4,0C2.4,64.9,2.6,64.9,3,64.9z"/>
				<path id="XMLID_411_" class="st0" d="M11.2,59.2c0.5,0,0.9,0.1,1.2,0.2c0.3,0.1,0.6,0.3,0.8,0.5c0.2,0.2,0.3,0.5,0.4,0.8
					c0.1,0.3,0.1,0.6,0.1,1v4.1c-0.1,0-0.2,0-0.4,0.1c-0.2,0-0.4,0.1-0.6,0.1c-0.2,0-0.5,0-0.7,0.1c-0.3,0-0.5,0-0.8,0
					c-0.4,0-0.7,0-1-0.1c-0.3-0.1-0.6-0.2-0.8-0.4c-0.2-0.2-0.4-0.4-0.5-0.7c-0.1-0.3-0.2-0.6-0.2-1c0-0.4,0.1-0.7,0.2-0.9
					c0.1-0.3,0.3-0.5,0.6-0.6c0.3-0.2,0.6-0.3,0.9-0.4c0.3-0.1,0.7-0.1,1.1-0.1c0.1,0,0.2,0,0.4,0s0.2,0,0.4,0.1
					c0.1,0,0.2,0,0.3,0.1s0.1,0,0.2,0v-0.3c0-0.2,0-0.4-0.1-0.6c0-0.2-0.1-0.4-0.2-0.5s-0.3-0.3-0.5-0.4s-0.4-0.1-0.7-0.1
					c-0.4,0-0.7,0-1,0.1c-0.3,0.1-0.5,0.1-0.7,0.2l-0.1-1c0.2-0.1,0.4-0.1,0.8-0.2C10.4,59.2,10.7,59.2,11.2,59.2z M11.3,65.1
					c0.3,0,0.5,0,0.7,0c0.2,0,0.4,0,0.5-0.1v-2c-0.1,0-0.2-0.1-0.4-0.1c-0.2,0-0.4,0-0.7,0c-0.2,0-0.4,0-0.6,0
					c-0.2,0-0.4,0.1-0.5,0.2c-0.2,0.1-0.3,0.2-0.4,0.3c-0.1,0.1-0.2,0.3-0.2,0.6c0,0.4,0.1,0.7,0.4,0.9C10.4,65,10.8,65.1,11.3,65.1
					z"/>
				<path id="XMLID_409_" class="st0" d="M16.4,59.3h2.5v1h-2.5v3c0,0.3,0,0.6,0.1,0.8c0.1,0.2,0.1,0.4,0.2,0.5
					c0.1,0.1,0.2,0.2,0.4,0.3c0.2,0.1,0.3,0.1,0.5,0.1c0.4,0,0.6,0,0.9-0.1c0.2-0.1,0.4-0.1,0.5-0.2l0.2,1c-0.1,0.1-0.3,0.1-0.6,0.2
					c-0.3,0.1-0.6,0.1-1,0.1c-0.4,0-0.8-0.1-1.1-0.2c-0.3-0.1-0.5-0.3-0.7-0.5c-0.2-0.2-0.3-0.5-0.4-0.8c-0.1-0.3-0.1-0.7-0.1-1.2
					v-5.9l1.2-0.2V59.3z"/>
				<path id="XMLID_406_" class="st0" d="M22.3,59.2c0.5,0,0.9,0.1,1.2,0.2c0.3,0.1,0.6,0.3,0.8,0.5s0.3,0.5,0.4,0.8
					c0.1,0.3,0.1,0.6,0.1,1v4.1c-0.1,0-0.2,0-0.4,0.1c-0.2,0-0.4,0.1-0.6,0.1c-0.2,0-0.5,0-0.7,0.1c-0.3,0-0.5,0-0.8,0
					c-0.4,0-0.7,0-1-0.1c-0.3-0.1-0.6-0.2-0.8-0.4c-0.2-0.2-0.4-0.4-0.5-0.7c-0.1-0.3-0.2-0.6-0.2-1c0-0.4,0.1-0.7,0.2-0.9
					c0.1-0.3,0.3-0.5,0.6-0.6c0.3-0.2,0.6-0.3,0.9-0.4c0.3-0.1,0.7-0.1,1.1-0.1c0.1,0,0.2,0,0.4,0s0.2,0,0.4,0.1
					c0.1,0,0.2,0,0.3,0.1c0.1,0,0.1,0,0.2,0v-0.3c0-0.2,0-0.4-0.1-0.6c0-0.2-0.1-0.4-0.2-0.5c-0.1-0.1-0.3-0.3-0.5-0.4
					c-0.2-0.1-0.4-0.1-0.7-0.1c-0.4,0-0.7,0-1,0.1c-0.3,0.1-0.5,0.1-0.7,0.2l-0.1-1c0.2-0.1,0.4-0.1,0.8-0.2
					C21.5,59.2,21.8,59.2,22.3,59.2z M22.4,65.1c0.3,0,0.5,0,0.7,0c0.2,0,0.4,0,0.5-0.1v-2c-0.1,0-0.2-0.1-0.4-0.1
					c-0.2,0-0.4,0-0.7,0c-0.2,0-0.4,0-0.6,0c-0.2,0-0.4,0.1-0.5,0.2c-0.2,0.1-0.3,0.2-0.4,0.3c-0.1,0.1-0.2,0.3-0.2,0.6
					c0,0.4,0.1,0.7,0.4,0.9C21.5,65,21.9,65.1,22.4,65.1z"/>
				<path id="XMLID_355_" class="st0" d="M33.1,64.7c-0.1-0.2-0.2-0.5-0.3-0.8c-0.1-0.3-0.3-0.7-0.5-1c-0.2-0.4-0.3-0.7-0.5-1.1
					c-0.2-0.4-0.4-0.7-0.5-1.1c-0.2-0.3-0.3-0.6-0.5-0.9c-0.1-0.3-0.3-0.5-0.3-0.6c-0.1,1-0.2,2.1-0.2,3.2c-0.1,1.2-0.1,2.3-0.2,3.5
					h-1.2c0-0.8,0.1-1.5,0.1-2.3c0-0.8,0.1-1.5,0.1-2.3c0.1-0.7,0.1-1.5,0.2-2.2c0.1-0.7,0.1-1.4,0.2-2h1.1c0.2,0.4,0.5,0.8,0.7,1.3
					s0.5,1,0.8,1.6c0.3,0.6,0.5,1.1,0.8,1.7c0.2,0.6,0.5,1.1,0.7,1.5c0.2-0.5,0.4-1,0.7-1.5c0.2-0.6,0.5-1.1,0.8-1.7
					c0.3-0.6,0.5-1.1,0.8-1.6c0.3-0.5,0.5-0.9,0.7-1.3h1.1c0.3,2.8,0.5,5.8,0.6,8.8h-1.2c0-1.2-0.1-2.4-0.2-3.5
					c-0.1-1.2-0.1-2.2-0.2-3.2c-0.1,0.1-0.2,0.4-0.3,0.6c-0.1,0.3-0.3,0.6-0.5,0.9c-0.2,0.3-0.3,0.7-0.5,1.1
					c-0.2,0.4-0.4,0.8-0.5,1.1c-0.2,0.4-0.3,0.7-0.5,1c-0.1,0.3-0.3,0.6-0.3,0.8H33.1z"/>
				<path id="XMLID_352_" class="st0" d="M40.4,58.1c-0.2,0-0.4-0.1-0.5-0.2c-0.1-0.1-0.2-0.3-0.2-0.6s0.1-0.4,0.2-0.6
					c0.1-0.1,0.3-0.2,0.5-0.2s0.4,0.1,0.5,0.2c0.1,0.1,0.2,0.3,0.2,0.6s-0.1,0.4-0.2,0.6C40.8,58.1,40.6,58.1,40.4,58.1z M41,65.9
					h-1.2v-6.6H41V65.9z"/>
				<path id="XMLID_350_" class="st0" d="M42.7,59.5c0.3-0.1,0.6-0.1,1.1-0.2c0.4-0.1,1-0.1,1.5-0.1c0.5,0,1,0.1,1.3,0.2
					c0.3,0.1,0.6,0.4,0.8,0.6c0.2,0.3,0.4,0.6,0.4,1c0.1,0.4,0.1,0.8,0.1,1.2v3.7h-1.2v-3.5c0-0.4,0-0.8-0.1-1
					c-0.1-0.3-0.1-0.5-0.3-0.7c-0.1-0.2-0.3-0.3-0.5-0.4c-0.2-0.1-0.5-0.1-0.8-0.1c-0.1,0-0.3,0-0.4,0c-0.1,0-0.3,0-0.4,0
					c-0.1,0-0.2,0-0.3,0s-0.2,0-0.2,0v5.6h-1.2V59.5z"/>
				<path id="XMLID_347_" class="st0" d="M50.3,58.1c-0.2,0-0.4-0.1-0.5-0.2c-0.1-0.1-0.2-0.3-0.2-0.6s0.1-0.4,0.2-0.6
					c0.1-0.1,0.3-0.2,0.5-0.2s0.4,0.1,0.5,0.2c0.1,0.1,0.2,0.3,0.2,0.6s-0.1,0.4-0.2,0.6C50.6,58.1,50.5,58.1,50.3,58.1z M50.9,65.9
					h-1.2v-6.6h1.2V65.9z"/>
				<path id="XMLID_345_" class="st0" d="M52.6,59.5c0.3-0.1,0.6-0.1,1.1-0.2c0.4-0.1,1-0.1,1.5-0.1c0.5,0,1,0.1,1.3,0.2
					c0.3,0.1,0.6,0.4,0.8,0.6c0.2,0.3,0.4,0.6,0.4,1c0.1,0.4,0.1,0.8,0.1,1.2v3.7h-1.2v-3.5c0-0.4,0-0.8-0.1-1
					c-0.1-0.3-0.1-0.5-0.3-0.7c-0.1-0.2-0.3-0.3-0.5-0.4c-0.2-0.1-0.5-0.1-0.8-0.1c-0.1,0-0.3,0-0.4,0c-0.1,0-0.3,0-0.4,0
					c-0.1,0-0.2,0-0.3,0s-0.2,0-0.2,0v5.6h-1.2V59.5z"/>
				<path id="XMLID_342_" class="st0" d="M63.7,65.3c-0.1,0.1-0.3,0.2-0.6,0.3c-0.3,0.1-0.6,0.2-1,0.2c-0.4,0-0.8-0.1-1.1-0.2
					c-0.4-0.1-0.7-0.3-0.9-0.6c-0.3-0.3-0.5-0.6-0.6-1c-0.2-0.4-0.2-0.9-0.2-1.4c0-0.5,0.1-0.9,0.2-1.3c0.1-0.4,0.4-0.7,0.6-1
					c0.3-0.3,0.6-0.5,1-0.7c0.4-0.2,0.8-0.2,1.3-0.2c0.6,0,1,0,1.4,0.1c0.4,0.1,0.8,0.2,1,0.2v5.9c0,1-0.3,1.8-0.8,2.2
					c-0.5,0.5-1.3,0.7-2.4,0.7c-0.4,0-0.8,0-1.2-0.1c-0.4-0.1-0.7-0.1-1-0.2l0.2-1c0.2,0.1,0.5,0.2,0.9,0.2c0.3,0.1,0.7,0.1,1.1,0.1
					c0.7,0,1.2-0.1,1.5-0.4c0.3-0.3,0.5-0.7,0.5-1.3V65.3z M63.7,60.4c-0.1,0-0.3-0.1-0.5-0.1c-0.2,0-0.5,0-0.8,0
					c-0.6,0-1.1,0.2-1.5,0.6c-0.3,0.4-0.5,1-0.5,1.7c0,0.4,0,0.7,0.1,1c0.1,0.3,0.2,0.5,0.4,0.7c0.2,0.2,0.4,0.3,0.6,0.4
					c0.2,0.1,0.4,0.1,0.7,0.1c0.3,0,0.6,0,0.9-0.1c0.3-0.1,0.5-0.2,0.6-0.3V60.4z"/>
				<path id="XMLID_340_" class="st0" d="M73,66.1c-0.6,0-1.2-0.1-1.7-0.3c-0.5-0.2-0.9-0.5-1.3-0.9c-0.4-0.4-0.6-0.9-0.8-1.4
					c-0.2-0.6-0.3-1.2-0.3-2c0-0.7,0.1-1.4,0.3-2c0.2-0.6,0.5-1.1,0.9-1.4c0.4-0.4,0.8-0.7,1.3-0.9c0.5-0.2,1.1-0.3,1.6-0.3
					c0.4,0,0.7,0,1,0.1c0.3,0.1,0.5,0.1,0.8,0.2c0.2,0.1,0.4,0.1,0.5,0.2c0.1,0.1,0.2,0.1,0.3,0.2l-0.4,1c-0.1-0.1-0.2-0.1-0.3-0.2
					c-0.1-0.1-0.3-0.1-0.5-0.2c-0.2-0.1-0.4-0.1-0.6-0.1c-0.2,0-0.4-0.1-0.7-0.1c-0.5,0-0.9,0.1-1.3,0.2c-0.4,0.2-0.7,0.4-1,0.7
					c-0.3,0.3-0.5,0.7-0.6,1.1c-0.1,0.4-0.2,0.9-0.2,1.5c0,0.5,0.1,1,0.2,1.4c0.1,0.4,0.3,0.8,0.6,1.1c0.2,0.3,0.6,0.5,0.9,0.7
					c0.4,0.2,0.8,0.3,1.3,0.3c0.6,0,1-0.1,1.4-0.2c0.4-0.1,0.7-0.2,0.8-0.3l0.3,1c-0.1,0-0.2,0.1-0.3,0.2c-0.2,0.1-0.3,0.1-0.6,0.2
					C74.6,66,74.3,66,74,66.1C73.7,66.1,73.4,66.1,73,66.1z"/>
				<path id="XMLID_337_" class="st0" d="M82.4,62.6c0,0.5-0.1,1-0.2,1.4c-0.2,0.4-0.4,0.8-0.6,1.1c-0.3,0.3-0.6,0.5-1,0.7
					c-0.4,0.2-0.8,0.2-1.2,0.2S78.4,66,78,65.9c-0.4-0.2-0.7-0.4-1-0.7c-0.3-0.3-0.5-0.7-0.6-1.1c-0.2-0.4-0.2-0.9-0.2-1.4
					c0-0.5,0.1-1,0.2-1.4c0.2-0.4,0.4-0.8,0.6-1.1c0.3-0.3,0.6-0.5,1-0.7c0.4-0.2,0.8-0.2,1.2-0.2s0.9,0.1,1.2,0.2
					c0.4,0.2,0.7,0.4,1,0.7c0.3,0.3,0.5,0.7,0.6,1.1C82.3,61.7,82.4,62.1,82.4,62.6z M81.1,62.6c0-0.7-0.2-1.3-0.5-1.8
					c-0.3-0.4-0.8-0.7-1.4-0.7s-1,0.2-1.4,0.7c-0.3,0.4-0.5,1-0.5,1.8c0,0.7,0.2,1.3,0.5,1.8c0.3,0.4,0.8,0.7,1.4,0.7s1-0.2,1.4-0.7
					C81,64,81.1,63.4,81.1,62.6z"/>
				<path id="XMLID_335_" class="st0" d="M83.7,59.5c0.3-0.1,0.6-0.1,1.1-0.2c0.4-0.1,1-0.1,1.5-0.1c0.5,0,1,0.1,1.3,0.2
					c0.3,0.1,0.6,0.4,0.8,0.6c0.2,0.3,0.4,0.6,0.4,1c0.1,0.4,0.1,0.8,0.1,1.2v3.7h-1.2v-3.5c0-0.4,0-0.8-0.1-1
					c-0.1-0.3-0.1-0.5-0.3-0.7c-0.1-0.2-0.3-0.3-0.5-0.4c-0.2-0.1-0.5-0.1-0.8-0.1c-0.1,0-0.3,0-0.4,0c-0.1,0-0.3,0-0.4,0
					s-0.2,0-0.3,0s-0.2,0-0.2,0v5.6h-1.2V59.5z"/>
				<path id="XMLID_333_" class="st0" d="M92.2,65.1c0.5,0,0.8-0.1,1.1-0.2c0.2-0.1,0.3-0.3,0.3-0.6c0-0.3-0.1-0.5-0.3-0.7
					c-0.2-0.2-0.6-0.4-1.1-0.6c-0.3-0.1-0.5-0.2-0.7-0.3c-0.2-0.1-0.4-0.2-0.6-0.4c-0.2-0.1-0.3-0.3-0.4-0.5
					c-0.1-0.2-0.2-0.5-0.2-0.7c0-0.6,0.2-1,0.6-1.4s1-0.5,1.8-0.5c0.2,0,0.4,0,0.6,0c0.2,0,0.4,0,0.5,0.1c0.2,0,0.3,0.1,0.4,0.1
					c0.1,0,0.2,0.1,0.3,0.1l-0.2,1c-0.1-0.1-0.3-0.1-0.6-0.2c-0.3-0.1-0.6-0.1-1-0.1c-0.3,0-0.6,0.1-0.9,0.2
					c-0.2,0.1-0.4,0.3-0.4,0.6c0,0.1,0,0.3,0.1,0.4c0.1,0.1,0.1,0.2,0.3,0.3c0.1,0.1,0.3,0.2,0.4,0.2c0.2,0.1,0.4,0.2,0.6,0.2
					c0.3,0.1,0.6,0.2,0.8,0.3s0.5,0.2,0.6,0.4c0.2,0.2,0.3,0.3,0.4,0.6s0.1,0.5,0.1,0.8c0,0.6-0.2,1.1-0.7,1.4
					c-0.5,0.3-1.1,0.5-1.9,0.5c-0.6,0-1,0-1.4-0.1s-0.6-0.2-0.7-0.2l0.2-1c0.1,0.1,0.4,0.1,0.6,0.2C91.3,65,91.7,65.1,92.2,65.1z"/>
				<path id="XMLID_331_" class="st0" d="M101.3,65.8c-0.3,0.1-0.6,0.1-1.1,0.2c-0.4,0.1-1,0.1-1.5,0.1c-0.5,0-0.9-0.1-1.3-0.2
					c-0.3-0.1-0.6-0.4-0.8-0.6c-0.2-0.3-0.4-0.6-0.5-1C96,63.9,96,63.5,96,63v-3.7h1.2v3.5c0,0.8,0.1,1.4,0.4,1.7
					c0.3,0.3,0.7,0.5,1.3,0.5c0.1,0,0.3,0,0.4,0c0.1,0,0.3,0,0.4,0s0.2,0,0.3,0c0.1,0,0.2,0,0.2,0v-5.6h1.2V65.8z"/>
				<path id="XMLID_329_" class="st0" d="M105,66.1c-0.7,0-1.2-0.2-1.5-0.5c-0.3-0.3-0.5-0.8-0.5-1.4v-7.9l1.2-0.2V64
					c0,0.2,0,0.4,0.1,0.5c0,0.1,0.1,0.2,0.2,0.3c0.1,0.1,0.2,0.1,0.3,0.2c0.1,0,0.3,0.1,0.5,0.1L105,66.1z"/>
				<path id="XMLID_327_" class="st0" d="M107.3,59.3h2.5v1h-2.5v3c0,0.3,0,0.6,0.1,0.8c0.1,0.2,0.1,0.4,0.2,0.5s0.2,0.2,0.4,0.3
					c0.2,0.1,0.3,0.1,0.5,0.1c0.4,0,0.6,0,0.9-0.1c0.2-0.1,0.4-0.1,0.5-0.2l0.2,1c-0.1,0.1-0.3,0.1-0.6,0.2c-0.3,0.1-0.6,0.1-1,0.1
					c-0.4,0-0.8-0.1-1.1-0.2c-0.3-0.1-0.5-0.3-0.7-0.5c-0.2-0.2-0.3-0.5-0.4-0.8c-0.1-0.3-0.1-0.7-0.1-1.2v-5.9l1.2-0.2V59.3z"/>
				<path id="XMLID_324_" class="st0" d="M111.5,58.1c-0.2,0-0.4-0.1-0.5-0.2c-0.1-0.1-0.2-0.3-0.2-0.6s0.1-0.4,0.2-0.6
					c0.1-0.1,0.3-0.2,0.5-0.2c0.2,0,0.4,0.1,0.5,0.2c0.1,0.1,0.2,0.3,0.2,0.6s-0.1,0.4-0.2,0.6C111.9,58.1,111.7,58.1,111.5,58.1z
					 M112.1,65.9H111v-6.6h1.2V65.9z"/>
				<path id="XMLID_322_" class="st0" d="M113.9,59.5c0.3-0.1,0.6-0.1,1.1-0.2c0.4-0.1,1-0.1,1.5-0.1c0.5,0,1,0.1,1.3,0.2
					c0.3,0.1,0.6,0.4,0.8,0.6c0.2,0.3,0.4,0.6,0.4,1c0.1,0.4,0.1,0.8,0.1,1.2v3.7H118v-3.5c0-0.4,0-0.8-0.1-1
					c-0.1-0.3-0.1-0.5-0.3-0.7c-0.1-0.2-0.3-0.3-0.5-0.4c-0.2-0.1-0.5-0.1-0.8-0.1c-0.1,0-0.3,0-0.4,0c-0.1,0-0.3,0-0.4,0
					s-0.2,0-0.3,0s-0.2,0-0.2,0v5.6h-1.2V59.5z"/>
				<path id="XMLID_319_" class="st0" d="M125,65.3c-0.1,0.1-0.3,0.2-0.6,0.3c-0.3,0.1-0.6,0.2-1,0.2c-0.4,0-0.8-0.1-1.1-0.2
					c-0.4-0.1-0.7-0.3-0.9-0.6c-0.3-0.3-0.5-0.6-0.6-1c-0.2-0.4-0.2-0.9-0.2-1.4c0-0.5,0.1-0.9,0.2-1.3c0.1-0.4,0.4-0.7,0.6-1
					c0.3-0.3,0.6-0.5,1-0.7c0.4-0.2,0.8-0.2,1.3-0.2c0.6,0,1,0,1.4,0.1c0.4,0.1,0.8,0.2,1,0.2v5.9c0,1-0.3,1.8-0.8,2.2
					c-0.5,0.5-1.3,0.7-2.4,0.7c-0.4,0-0.8,0-1.2-0.1c-0.4-0.1-0.7-0.1-1-0.2l0.2-1c0.2,0.1,0.5,0.2,0.9,0.2s0.7,0.1,1.1,0.1
					c0.7,0,1.2-0.1,1.5-0.4c0.3-0.3,0.5-0.7,0.5-1.3V65.3z M125,60.4c-0.1,0-0.3-0.1-0.5-0.1c-0.2,0-0.5,0-0.8,0
					c-0.6,0-1.1,0.2-1.5,0.6c-0.3,0.4-0.5,1-0.5,1.7c0,0.4,0,0.7,0.1,1c0.1,0.3,0.2,0.5,0.4,0.7c0.2,0.2,0.4,0.3,0.6,0.4
					c0.2,0.1,0.4,0.1,0.7,0.1c0.3,0,0.6,0,0.9-0.1c0.3-0.1,0.5-0.2,0.6-0.3V60.4z"/>
			</g>
		</g>
		<g id="XMLID_307_">
			<path id="XMLID_317_" class="st0" d="M48.9,46.5c2.6,0,4.6-2.1,4.6-4.6V11.7C52.2,12.5,50.7,13,49,13c-1.8,0-3.4-0.6-4.7-1.5
				v30.3C44.3,44.4,46.3,46.5,48.9,46.5z"/>
			<path id="XMLID_316_" class="st0" d="M68.5,22.7v-18c0-2.6-2.1-4.6-4.6-4.6c-2.6,0-4.6,2.1-4.6,4.6v18.1c1.3-0.9,3-1.5,4.7-1.5
				C65.6,21.3,67.2,21.8,68.5,22.7z"/>
			<path id="XMLID_315_" class="st0" d="M78.8,46.5c2.6,0,4.6-2.1,4.6-4.6V11.6c-1.3,0.9-2.9,1.4-4.6,1.4c-1.7,0-3.3-0.5-4.7-1.4
				v30.2C74.2,44.4,76.2,46.5,78.8,46.5z"/>
			<path id="XMLID_314_" class="st0" d="M49,9.3c2.3,0,4.1-1.6,4.5-3.8c0-0.2,0.1-0.4,0.1-0.6V4.6C53.6,2.1,51.6,0,49,0
				c-0.7,0-1.3,0.1-1.8,0.4c-1.6,0.7-2.8,2.3-2.8,4.3C44.4,7.2,46.4,9.3,49,9.3z"/>
			<path id="XMLID_313_" class="st0" d="M63.9,25c-2.6,0-4.6,2.1-4.6,4.6c0,1.6,0.8,3,2,3.8c0.7,0.5,1.6,0.8,2.6,0.8
				c2.6,0,4.6-2.1,4.6-4.6v-0.2c0-0.1,0-0.2-0.1-0.4C68.2,26.8,66.3,25,63.9,25z"/>
			<path id="XMLID_312_" class="st0" d="M78.8,9.3c2.5,0,4.5-2,4.6-4.4c0,0,0,0,0,0V4.6c0-2.6-2.1-4.6-4.6-4.6
				c-1.1,0-2.1,0.4-2.9,1.1c-0.1,0.1-0.2,0.1-0.2,0.2c-0.1,0.1-0.2,0.2-0.3,0.4c-0.1,0.2-0.3,0.3-0.4,0.5c0,0.1-0.1,0.1-0.1,0.2
				c-0.1,0.2-0.2,0.3-0.3,0.5c0,0.1-0.1,0.1-0.1,0.2c-0.1,0.2-0.2,0.5-0.2,0.7c0,0,0,0.1,0,0.1c-0.1,0.3-0.1,0.6-0.1,0.9
				C74.2,7.2,76.3,9.3,78.8,9.3z"/>
			<path id="XMLID_311_" class="st0" d="M111.5,46.7h11.5v0c2.6,0,4.6-2.1,4.6-4.6c0-2.6-2.1-4.6-4.6-4.6v0h-11.5
				c-3.8,0-7.4-1.1-10.1-3.8c-3.9-3.9-4.4-9.4-3.3-15c0.1-0.4,0.2-0.7,0.3-1c2.8-6,7.6-8.1,13-8.1h4.6c-0.9-1.3-1.4-2.9-1.4-4.7
				c0-1.7,0.5-3.3,1.4-4.7h-4.5c-6.4,0-12.4,2.3-17,6.8c-8.3,8.3-8.3,24.5,0,32.9C99.1,44.4,105.1,46.7,111.5,46.7z"/>
			<path id="XMLID_310_" class="st0" d="M123.1,9.4L123.1,9.4c2.3,0,4.1-1.6,4.6-3.7c0.1-0.3,0.1-0.6,0.1-0.9c0-0.3,0-0.6-0.1-0.9
				c-0.1-0.6-0.4-1.2-0.7-1.7c-0.8-1.2-2.3-2.1-3.9-2.1c-2.6,0-4.7,2.1-4.7,4.7C118.4,7.4,120.5,9.4,123.1,9.4z"/>
			<path id="XMLID_309_" class="st0" d="M16.2,9.4c5.4,0,10.3,2.2,13,8.1c0.2,0.3,0.3,0.7,0.3,1c1.1,5.5,0.6,11.1-3.3,15
				c-2.7,2.7-6.3,3.8-10.1,3.8H4.7v0C2.1,37.4,0,39.5,0,42c0,2.6,2.1,4.6,4.6,4.6v0h11.5c6.4,0,12.4-2.3,17-6.9
				c8.3-8.3,8.3-24.6,0-32.9c-4.6-4.5-10.6-6.8-17-6.8h-4.5c0.9,1.3,1.4,2.9,1.4,4.7c0,1.7-0.5,3.3-1.4,4.7H16.2z"/>
			<path id="XMLID_308_" class="st0" d="M2.1,8.7C2.2,8.8,2.4,8.9,2.6,9c0.6,0.3,1.3,0.5,2,0.5c2.6,0,4.7-2.1,4.7-4.7
				c0-2.6-2.1-4.7-4.7-4.7C2.1,0.1,0,2.2,0,4.8C0,6.4,0.8,7.8,2.1,8.7z"/>
		</g>
	</g>
</g>
</svg>
